<svg width="91" height="39" viewBox="0 0 91 39" fill="none" xmlns="http://www.w3.org/2000/svg">
    <g clip-path="url(#clip0)">
        <path d="M22.4363 19.2465C22.4363 24.0186 19.1793 28.0352 14.7793 29.1885V30.8919C20.0976 29.7055 24.0879 24.9333 24.0879 19.2465C24.0879 13.5597 20.0976 8.78749 14.7793 7.60107V9.30448C19.1793 10.4511 22.4363 14.4743 22.4363 19.2465Z"
              fill="black"/>
        <path fill-rule="evenodd" clip-rule="evenodd"
              d="M11.3232 0.0921669V38.3424C17.1634 38.6805 24.4835 35.8768 28.5994 28.7716C32.4775 22.064 31.9094 13.5735 27.0733 7.46915C23.0697 2.40534 17.7646 0.0258867 11.3232 0.0921669ZM27.1857 28.1287C24.0541 33.5968 19.1124 36.3805 12.8229 36.8909V1.60335C18.6698 2.03417 23.3868 4.51305 26.5976 9.41118C30.5682 15.4625 30.7862 21.8453 27.1857 28.1287Z"
              fill="black"/>
        <path fill-rule="evenodd" clip-rule="evenodd"
              d="M49.7539 17.0403V26.1007C49.8465 26.114 49.9125 26.1207 49.972 26.1207C50.2509 26.1207 50.5298 26.1213 50.8087 26.122C51.785 26.1243 52.7614 26.1265 53.7377 26.1007C56.0302 26.0477 57.9987 24.1323 58.1046 21.892C58.2234 19.3601 56.6511 17.3584 54.2068 17.1132C53.1967 17.0105 52.1735 17.0097 51.1488 17.009C50.719 17.0086 50.2891 17.0083 49.8596 17.0005C49.8364 17.0005 49.8164 17.0103 49.7906 17.0231C49.7796 17.0285 49.7676 17.0344 49.7539 17.0403ZM51.8935 24.9231C51.6212 24.9187 51.3465 24.9143 51.0687 24.9143V18.1604C51.4274 18.1753 51.7848 18.167 52.1404 18.1586C52.8915 18.1411 53.6345 18.1237 54.3653 18.3261C55.9839 18.7702 56.9089 20.1687 56.7502 21.8323C56.5852 23.5689 55.4158 24.7818 53.7112 24.9011C53.1115 24.9424 52.5085 24.9328 51.8935 24.9231Z"
              fill="black"/>
        <path d="M84.8281 17.0137H89.9547V18.1471H86.1431V20.9242H89.8094V22.104H86.1431V24.9407H90.0672V26.1006H84.8281V17.0137Z"
              fill="black"/>
        <path fill-rule="evenodd" clip-rule="evenodd"
              d="M65.1018 16.9808C66.1855 16.7554 67.2685 16.8283 68.306 17.2658C70.0831 18.0147 71.1403 19.6386 71.1403 21.5872C71.1403 24.1191 69.2641 26.0479 66.6279 26.2335C64.9099 26.3527 63.4367 25.849 62.3137 24.4837C60.4639 22.2301 61.131 17.8093 65.1018 16.9808ZM62.697 21.574C62.6835 23.5491 64.1899 25.0272 66.2181 25.0338C68.2598 25.0404 69.7927 23.5491 69.7927 21.5408C69.7927 19.6055 68.2728 18.1142 66.2778 18.1075C64.1966 18.1009 62.71 19.5392 62.697 21.574Z"
              fill="black"/>
        <path fill-rule="evenodd" clip-rule="evenodd"
              d="M43.3058 17.2658C42.2686 16.8283 41.1851 16.7554 40.1017 16.9808C36.1311 17.8093 35.4638 22.2301 37.3137 24.4837C38.4368 25.849 39.9101 26.3527 41.6278 26.2335C44.2638 26.0479 46.1401 24.1191 46.1401 21.5872C46.1401 19.6386 45.0764 18.0147 43.3058 17.2658ZM41.2116 25.0338C39.1833 25.0272 37.6771 23.5491 37.6902 21.574C37.7035 19.5392 39.19 18.1009 41.271 18.1075C43.2662 18.1142 44.7858 19.6055 44.7858 21.5408C44.7858 23.5491 43.253 25.0404 41.2116 25.0338Z"
              fill="black"/>
        <path fill-rule="evenodd" clip-rule="evenodd"
              d="M80.2257 23.7715L80.2832 23.8602C80.5449 24.2674 80.8072 24.6726 81.0741 25.0844C81.2975 25.4301 81.5238 25.7803 81.7563 26.1402C81.6595 26.1402 81.5632 26.1405 81.4681 26.1408H81.467C81.0881 26.1418 80.7194 26.1428 80.3558 26.127C80.2629 26.127 80.1576 26.001 80.0979 25.9083C79.9454 25.6731 79.7962 25.4348 79.6465 25.1964C79.3622 24.7426 79.0774 24.2881 78.77 23.8535C78.4463 23.3896 78.063 22.9588 77.6667 22.5478C77.2608 22.1341 76.7362 22.1532 76.1834 22.1733C76.1513 22.1745 76.1198 22.1756 76.0877 22.1767V26.1203H74.793V17.0466C74.8014 17.0403 74.8082 17.0341 74.8144 17.0285C74.8284 17.0162 74.8386 17.0068 74.8521 17.0068C75.1735 17.0148 75.4961 17.0132 75.8192 17.0115C76.5662 17.0077 77.3143 17.0038 78.0433 17.1195C79.5958 17.3647 80.3952 18.7699 79.9724 20.2678C79.8075 20.8776 79.4309 21.3217 78.8888 21.6266C78.8212 21.6654 78.7537 21.7006 78.6676 21.7453C78.636 21.7617 78.6023 21.7793 78.5651 21.7989C79.3014 22.3337 79.763 23.0519 80.2257 23.7715ZM76.2994 20.977C76.7418 20.977 77.1843 20.977 77.6138 20.9107C78.2549 20.8179 78.6709 20.3076 78.7171 19.6448C78.7571 18.982 78.4266 18.3987 77.8316 18.2595C77.4472 18.1712 77.0525 18.1383 76.6371 18.1036C76.4603 18.0889 76.2796 18.0739 76.0944 18.054C76.0944 18.3048 76.0939 18.5482 76.0933 18.7861V18.7863C76.0922 19.479 76.0911 20.1253 76.1012 20.7715C76.1012 20.8444 76.2329 20.977 76.2994 20.977Z"
              fill="black"/>
        <path d="M9.30865 29.1885C4.90869 28.0418 1.65165 24.0186 1.65165 19.2465C1.65165 14.4743 4.90869 10.4511 9.30865 9.30448V7.60107C3.99038 8.78749 0 13.5597 0 19.2465C0 24.9333 3.99038 29.7055 9.30865 30.8919V29.1885Z"
              fill="black"/>
    </g>
    <defs>
        <clipPath id="clip0">
            <rect width="90.0675" height="38.2787" fill="white" transform="translate(0 0.0913086)"/>
        </clipPath>
    </defs>
</svg>

