<svg width="22" height="27" viewBox="0 0 22 27" fill="black" xmlns="http://www.w3.org/2000/svg">
    <path d="M15.2264 13.5002C15.2264 16.6894 13.0653 19.3736 10.1458 20.1443V21.2827C13.6746 20.4898 16.3223 17.3007 16.3223 13.5002C16.3223 9.69981 13.6746 6.51064 10.1458 5.71777V6.85613C13.0653 7.6224 15.2264 10.311 15.2264 13.5002Z" />
    <path fill-rule="evenodd" clip-rule="evenodd" d="M7.67432 0.530148V26.4524C11.6767 26.6815 16.6932 24.7814 19.5139 19.9662C22.1716 15.4205 21.7822 9.66648 18.468 5.52954C15.7243 2.09779 12.0887 0.48523 7.67432 0.530148ZM18.545 19.5305C16.3989 23.2363 13.0123 25.1228 8.70207 25.4687V1.55428C12.709 1.84625 15.9416 3.52619 18.142 6.84565C20.8631 10.9467 21.0125 15.2723 18.545 19.5305Z" />
    <path d="M6.43925 20.1443C3.51975 19.378 1.35861 16.6894 1.35861 13.5002C1.35861 10.311 3.51975 7.6224 6.43925 6.85613V5.71777C2.91042 6.51064 0.262695 9.69981 0.262695 13.5002C0.262695 17.3007 2.91042 20.4898 6.43925 21.2827V20.1443Z" />
</svg>